<mxfile host="app.diagrams.net" modified="2021-02-23T03:28:17.895Z" agent="5.0 (Windows NT 10.0; Win64; x64) AppleWebKit/537.36 (KHTML, like Gecko) Chrome/88.0.4324.182 Safari/537.36" etag="PRl5UIFeQV_6iwFmXNNi" version="14.4.2" type="github">
  <diagram id="R2lEEEUBdFMjLlhIrx00" name="Page-1">
    <mxGraphModel dx="1221" dy="1826" grid="1" gridSize="10" guides="1" tooltips="1" connect="1" arrows="1" fold="1" page="1" pageScale="1" pageWidth="850" pageHeight="1100" math="0" shadow="0" extFonts="Permanent Marker^https://fonts.googleapis.com/css?family=Permanent+Marker">
      <root>
        <mxCell id="0" />
        <mxCell id="1" parent="0" />
        <mxCell id="hVogDAWBeh3BI3Ig1OgH-1" value="用户" style="rounded=1;arcSize=10;whiteSpace=wrap;html=1;align=center;" vertex="1" parent="1">
          <mxGeometry x="230" y="155" width="100" height="40" as="geometry" />
        </mxCell>
        <mxCell id="hVogDAWBeh3BI3Ig1OgH-2" value="用户ID" style="ellipse;whiteSpace=wrap;html=1;align=center;" vertex="1" parent="1">
          <mxGeometry x="80" y="-35" width="100" height="30" as="geometry" />
        </mxCell>
        <mxCell id="hVogDAWBeh3BI3Ig1OgH-3" value="审计" style="rhombus;whiteSpace=wrap;html=1;" vertex="1" parent="1">
          <mxGeometry x="480" y="215" width="100" height="50" as="geometry" />
        </mxCell>
        <mxCell id="hVogDAWBeh3BI3Ig1OgH-4" value="以太坊智能合约" style="rounded=1;arcSize=10;whiteSpace=wrap;html=1;align=center;" vertex="1" parent="1">
          <mxGeometry x="480" y="155" width="100" height="40" as="geometry" />
        </mxCell>
        <mxCell id="hVogDAWBeh3BI3Ig1OgH-5" value="合约审计结果" style="rounded=1;arcSize=10;whiteSpace=wrap;html=1;align=center;" vertex="1" parent="1">
          <mxGeometry x="480" y="295" width="100" height="40" as="geometry" />
        </mxCell>
        <mxCell id="hVogDAWBeh3BI3Ig1OgH-7" value="比特币区块信息" style="rounded=1;arcSize=10;whiteSpace=wrap;html=1;align=center;" vertex="1" parent="1">
          <mxGeometry x="230" y="282.5" width="100" height="40" as="geometry" />
        </mxCell>
        <mxCell id="hVogDAWBeh3BI3Ig1OgH-8" value="比特币转义信息" style="rounded=1;arcSize=10;whiteSpace=wrap;html=1;align=center;" vertex="1" parent="1">
          <mxGeometry x="230" y="410" width="100" height="40" as="geometry" />
        </mxCell>
        <mxCell id="hVogDAWBeh3BI3Ig1OgH-9" value="用户名" style="ellipse;whiteSpace=wrap;html=1;align=center;" vertex="1" parent="1">
          <mxGeometry x="80" y="5" width="100" height="30" as="geometry" />
        </mxCell>
        <mxCell id="hVogDAWBeh3BI3Ig1OgH-10" value="密码" style="ellipse;whiteSpace=wrap;html=1;align=center;" vertex="1" parent="1">
          <mxGeometry x="80" y="45" width="100" height="30" as="geometry" />
        </mxCell>
        <mxCell id="hVogDAWBeh3BI3Ig1OgH-11" value="邮箱" style="ellipse;whiteSpace=wrap;html=1;align=center;" vertex="1" parent="1">
          <mxGeometry x="80" y="85" width="100" height="30" as="geometry" />
        </mxCell>
        <mxCell id="hVogDAWBeh3BI3Ig1OgH-12" value="电话" style="ellipse;whiteSpace=wrap;html=1;align=center;" vertex="1" parent="1">
          <mxGeometry x="80" y="125" width="100" height="30" as="geometry" />
        </mxCell>
        <mxCell id="hVogDAWBeh3BI3Ig1OgH-13" value="验证信息" style="ellipse;whiteSpace=wrap;html=1;align=center;" vertex="1" parent="1">
          <mxGeometry x="80" y="165" width="100" height="30" as="geometry" />
        </mxCell>
        <mxCell id="hVogDAWBeh3BI3Ig1OgH-15" value="" style="endArrow=none;html=1;exitX=1;exitY=0.5;exitDx=0;exitDy=0;entryX=0;entryY=0.5;entryDx=0;entryDy=0;" edge="1" parent="1" source="hVogDAWBeh3BI3Ig1OgH-2" target="hVogDAWBeh3BI3Ig1OgH-1">
          <mxGeometry width="50" height="50" relative="1" as="geometry">
            <mxPoint x="310" y="115" as="sourcePoint" />
            <mxPoint x="360" y="65" as="targetPoint" />
          </mxGeometry>
        </mxCell>
        <mxCell id="hVogDAWBeh3BI3Ig1OgH-16" value="" style="endArrow=none;html=1;exitX=1;exitY=0.5;exitDx=0;exitDy=0;entryX=0;entryY=0.5;entryDx=0;entryDy=0;" edge="1" parent="1" source="hVogDAWBeh3BI3Ig1OgH-9" target="hVogDAWBeh3BI3Ig1OgH-1">
          <mxGeometry width="50" height="50" relative="1" as="geometry">
            <mxPoint x="400" as="sourcePoint" />
            <mxPoint x="480" y="95" as="targetPoint" />
          </mxGeometry>
        </mxCell>
        <mxCell id="hVogDAWBeh3BI3Ig1OgH-17" value="" style="endArrow=none;html=1;exitX=1;exitY=0.5;exitDx=0;exitDy=0;entryX=0;entryY=0.5;entryDx=0;entryDy=0;" edge="1" parent="1" source="hVogDAWBeh3BI3Ig1OgH-10" target="hVogDAWBeh3BI3Ig1OgH-1">
          <mxGeometry width="50" height="50" relative="1" as="geometry">
            <mxPoint x="480" as="sourcePoint" />
            <mxPoint x="560" y="95" as="targetPoint" />
          </mxGeometry>
        </mxCell>
        <mxCell id="hVogDAWBeh3BI3Ig1OgH-18" value="" style="endArrow=none;html=1;exitX=1;exitY=0.5;exitDx=0;exitDy=0;entryX=0;entryY=0.5;entryDx=0;entryDy=0;" edge="1" parent="1" source="hVogDAWBeh3BI3Ig1OgH-12" target="hVogDAWBeh3BI3Ig1OgH-1">
          <mxGeometry width="50" height="50" relative="1" as="geometry">
            <mxPoint x="220" y="182.5" as="sourcePoint" />
            <mxPoint x="300" y="277.5" as="targetPoint" />
          </mxGeometry>
        </mxCell>
        <mxCell id="hVogDAWBeh3BI3Ig1OgH-19" value="" style="endArrow=none;html=1;exitX=1;exitY=0.5;exitDx=0;exitDy=0;entryX=0;entryY=0.5;entryDx=0;entryDy=0;" edge="1" parent="1" source="hVogDAWBeh3BI3Ig1OgH-11" target="hVogDAWBeh3BI3Ig1OgH-1">
          <mxGeometry width="50" height="50" relative="1" as="geometry">
            <mxPoint x="360" y="100" as="sourcePoint" />
            <mxPoint x="660" y="125" as="targetPoint" />
          </mxGeometry>
        </mxCell>
        <mxCell id="hVogDAWBeh3BI3Ig1OgH-20" value="" style="endArrow=none;html=1;exitX=1;exitY=0.5;exitDx=0;exitDy=0;entryX=0;entryY=0.5;entryDx=0;entryDy=0;" edge="1" parent="1" source="hVogDAWBeh3BI3Ig1OgH-13" target="hVogDAWBeh3BI3Ig1OgH-1">
          <mxGeometry width="50" height="50" relative="1" as="geometry">
            <mxPoint x="210" y="200" as="sourcePoint" />
            <mxPoint x="290" y="295" as="targetPoint" />
          </mxGeometry>
        </mxCell>
        <mxCell id="hVogDAWBeh3BI3Ig1OgH-21" value="合约代码" style="ellipse;whiteSpace=wrap;html=1;align=center;" vertex="1" parent="1">
          <mxGeometry x="670" y="-20" width="100" height="30" as="geometry" />
        </mxCell>
        <mxCell id="hVogDAWBeh3BI3Ig1OgH-22" value="代币数目" style="ellipse;whiteSpace=wrap;html=1;align=center;" vertex="1" parent="1">
          <mxGeometry x="670" y="50" width="100" height="30" as="geometry" />
        </mxCell>
        <mxCell id="hVogDAWBeh3BI3Ig1OgH-23" value="关联通证" style="ellipse;whiteSpace=wrap;html=1;align=center;" vertex="1" parent="1">
          <mxGeometry x="670" y="15" width="100" height="30" as="geometry" />
        </mxCell>
        <mxCell id="hVogDAWBeh3BI3Ig1OgH-24" value="合约创建者地址" style="ellipse;whiteSpace=wrap;html=1;align=center;" vertex="1" parent="1">
          <mxGeometry x="670" y="225" width="100" height="30" as="geometry" />
        </mxCell>
        <mxCell id="hVogDAWBeh3BI3Ig1OgH-25" value="美元余额" style="ellipse;whiteSpace=wrap;html=1;align=center;" vertex="1" parent="1">
          <mxGeometry x="670" y="190" width="100" height="30" as="geometry" />
        </mxCell>
        <mxCell id="hVogDAWBeh3BI3Ig1OgH-26" value="以太坊余额" style="ellipse;whiteSpace=wrap;html=1;align=center;" vertex="1" parent="1">
          <mxGeometry x="670" y="85" width="100" height="30" as="geometry" />
        </mxCell>
        <mxCell id="hVogDAWBeh3BI3Ig1OgH-27" value="合约名称" style="ellipse;whiteSpace=wrap;html=1;align=center;" vertex="1" parent="1">
          <mxGeometry x="670" y="120" width="100" height="30" as="geometry" />
        </mxCell>
        <mxCell id="hVogDAWBeh3BI3Ig1OgH-28" value="合约地址" style="ellipse;whiteSpace=wrap;html=1;align=center;" vertex="1" parent="1">
          <mxGeometry x="670" y="155" width="100" height="30" as="geometry" />
        </mxCell>
        <mxCell id="hVogDAWBeh3BI3Ig1OgH-29" value="" style="endArrow=none;html=1;exitX=0;exitY=0.5;exitDx=0;exitDy=0;entryX=1;entryY=0.5;entryDx=0;entryDy=0;" edge="1" parent="1" source="hVogDAWBeh3BI3Ig1OgH-21" target="hVogDAWBeh3BI3Ig1OgH-4">
          <mxGeometry width="50" height="50" relative="1" as="geometry">
            <mxPoint x="510" y="32.5" as="sourcePoint" />
            <mxPoint x="560" y="137.5" as="targetPoint" />
          </mxGeometry>
        </mxCell>
        <mxCell id="hVogDAWBeh3BI3Ig1OgH-31" value="" style="endArrow=none;html=1;exitX=0.012;exitY=0.753;exitDx=0;exitDy=0;entryX=1;entryY=0.5;entryDx=0;entryDy=0;exitPerimeter=0;" edge="1" parent="1" source="hVogDAWBeh3BI3Ig1OgH-23" target="hVogDAWBeh3BI3Ig1OgH-4">
          <mxGeometry width="50" height="50" relative="1" as="geometry">
            <mxPoint x="650" y="102.5" as="sourcePoint" />
            <mxPoint x="480" y="192.5" as="targetPoint" />
          </mxGeometry>
        </mxCell>
        <mxCell id="hVogDAWBeh3BI3Ig1OgH-32" value="" style="endArrow=none;html=1;exitX=0;exitY=0.5;exitDx=0;exitDy=0;entryX=1;entryY=0.5;entryDx=0;entryDy=0;" edge="1" parent="1" source="hVogDAWBeh3BI3Ig1OgH-22" target="hVogDAWBeh3BI3Ig1OgH-4">
          <mxGeometry width="50" height="50" relative="1" as="geometry">
            <mxPoint x="630" y="122.5" as="sourcePoint" />
            <mxPoint x="460" y="212.5" as="targetPoint" />
          </mxGeometry>
        </mxCell>
        <mxCell id="hVogDAWBeh3BI3Ig1OgH-33" value="" style="endArrow=none;html=1;exitX=0;exitY=0.5;exitDx=0;exitDy=0;entryX=1;entryY=0.5;entryDx=0;entryDy=0;" edge="1" parent="1" source="hVogDAWBeh3BI3Ig1OgH-26" target="hVogDAWBeh3BI3Ig1OgH-4">
          <mxGeometry width="50" height="50" relative="1" as="geometry">
            <mxPoint x="600" y="152.5" as="sourcePoint" />
            <mxPoint x="430" y="242.5" as="targetPoint" />
          </mxGeometry>
        </mxCell>
        <mxCell id="hVogDAWBeh3BI3Ig1OgH-34" value="" style="endArrow=none;html=1;exitX=0;exitY=0.5;exitDx=0;exitDy=0;entryX=1;entryY=0.5;entryDx=0;entryDy=0;" edge="1" parent="1" source="hVogDAWBeh3BI3Ig1OgH-27" target="hVogDAWBeh3BI3Ig1OgH-4">
          <mxGeometry width="50" height="50" relative="1" as="geometry">
            <mxPoint x="590" y="177.5" as="sourcePoint" />
            <mxPoint x="420" y="267.5" as="targetPoint" />
          </mxGeometry>
        </mxCell>
        <mxCell id="hVogDAWBeh3BI3Ig1OgH-35" value="" style="endArrow=none;html=1;exitX=0;exitY=0.5;exitDx=0;exitDy=0;entryX=1;entryY=0.5;entryDx=0;entryDy=0;" edge="1" parent="1" source="hVogDAWBeh3BI3Ig1OgH-28" target="hVogDAWBeh3BI3Ig1OgH-4">
          <mxGeometry width="50" height="50" relative="1" as="geometry">
            <mxPoint x="535" y="197.5" as="sourcePoint" />
            <mxPoint x="365" y="287.5" as="targetPoint" />
          </mxGeometry>
        </mxCell>
        <mxCell id="hVogDAWBeh3BI3Ig1OgH-36" value="" style="endArrow=none;html=1;exitX=0;exitY=0.5;exitDx=0;exitDy=0;entryX=1;entryY=0.5;entryDx=0;entryDy=0;" edge="1" parent="1" source="hVogDAWBeh3BI3Ig1OgH-25" target="hVogDAWBeh3BI3Ig1OgH-4">
          <mxGeometry width="50" height="50" relative="1" as="geometry">
            <mxPoint x="510" y="217.5" as="sourcePoint" />
            <mxPoint x="340" y="307.5" as="targetPoint" />
          </mxGeometry>
        </mxCell>
        <mxCell id="hVogDAWBeh3BI3Ig1OgH-37" value="" style="endArrow=none;html=1;exitX=0;exitY=0.5;exitDx=0;exitDy=0;entryX=1;entryY=0.5;entryDx=0;entryDy=0;" edge="1" parent="1" source="hVogDAWBeh3BI3Ig1OgH-24" target="hVogDAWBeh3BI3Ig1OgH-4">
          <mxGeometry width="50" height="50" relative="1" as="geometry">
            <mxPoint x="680" y="192.5" as="sourcePoint" />
            <mxPoint x="470" y="307.5" as="targetPoint" />
          </mxGeometry>
        </mxCell>
        <mxCell id="hVogDAWBeh3BI3Ig1OgH-38" value="查询" style="rhombus;whiteSpace=wrap;html=1;" vertex="1" parent="1">
          <mxGeometry x="355" y="150" width="100" height="50" as="geometry" />
        </mxCell>
        <mxCell id="hVogDAWBeh3BI3Ig1OgH-39" value="查询" style="rhombus;whiteSpace=wrap;html=1;" vertex="1" parent="1">
          <mxGeometry x="230" y="215" width="100" height="50" as="geometry" />
        </mxCell>
        <mxCell id="hVogDAWBeh3BI3Ig1OgH-40" value="转义" style="rhombus;whiteSpace=wrap;html=1;" vertex="1" parent="1">
          <mxGeometry x="230" y="340" width="100" height="50" as="geometry" />
        </mxCell>
        <mxCell id="hVogDAWBeh3BI3Ig1OgH-42" value="m" style="endArrow=none;html=1;exitX=1;exitY=0.5;exitDx=0;exitDy=0;entryX=0;entryY=0.5;entryDx=0;entryDy=0;" edge="1" parent="1" source="hVogDAWBeh3BI3Ig1OgH-1" target="hVogDAWBeh3BI3Ig1OgH-38">
          <mxGeometry width="50" height="50" relative="1" as="geometry">
            <mxPoint x="240" y="370" as="sourcePoint" />
            <mxPoint x="290" y="320" as="targetPoint" />
          </mxGeometry>
        </mxCell>
        <mxCell id="hVogDAWBeh3BI3Ig1OgH-43" value="n" style="endArrow=none;html=1;entryX=0;entryY=0.5;entryDx=0;entryDy=0;exitX=1;exitY=0.5;exitDx=0;exitDy=0;" edge="1" parent="1" source="hVogDAWBeh3BI3Ig1OgH-38" target="hVogDAWBeh3BI3Ig1OgH-4">
          <mxGeometry width="50" height="50" relative="1" as="geometry">
            <mxPoint x="455" y="175" as="sourcePoint" />
            <mxPoint x="480" y="175" as="targetPoint" />
          </mxGeometry>
        </mxCell>
        <mxCell id="hVogDAWBeh3BI3Ig1OgH-44" value="1" style="endArrow=none;html=1;entryX=0.5;entryY=1;entryDx=0;entryDy=0;exitX=0.5;exitY=0;exitDx=0;exitDy=0;" edge="1" parent="1" source="hVogDAWBeh3BI3Ig1OgH-3" target="hVogDAWBeh3BI3Ig1OgH-4">
          <mxGeometry width="50" height="50" relative="1" as="geometry">
            <mxPoint x="465" y="185" as="sourcePoint" />
            <mxPoint x="490" y="185" as="targetPoint" />
          </mxGeometry>
        </mxCell>
        <mxCell id="hVogDAWBeh3BI3Ig1OgH-45" value="n" style="endArrow=none;html=1;entryX=0.5;entryY=0;entryDx=0;entryDy=0;exitX=0.5;exitY=1;exitDx=0;exitDy=0;" edge="1" parent="1" source="hVogDAWBeh3BI3Ig1OgH-3" target="hVogDAWBeh3BI3Ig1OgH-5">
          <mxGeometry width="50" height="50" relative="1" as="geometry">
            <mxPoint x="475" y="195" as="sourcePoint" />
            <mxPoint x="500" y="195" as="targetPoint" />
          </mxGeometry>
        </mxCell>
        <mxCell id="hVogDAWBeh3BI3Ig1OgH-46" value="n" style="endArrow=none;html=1;entryX=0.5;entryY=1;entryDx=0;entryDy=0;exitX=0.5;exitY=0;exitDx=0;exitDy=0;" edge="1" parent="1" source="hVogDAWBeh3BI3Ig1OgH-7" target="hVogDAWBeh3BI3Ig1OgH-39">
          <mxGeometry width="50" height="50" relative="1" as="geometry">
            <mxPoint x="540" y="225" as="sourcePoint" />
            <mxPoint x="540" y="205" as="targetPoint" />
          </mxGeometry>
        </mxCell>
        <mxCell id="hVogDAWBeh3BI3Ig1OgH-47" value="m" style="endArrow=none;html=1;entryX=0.5;entryY=1;entryDx=0;entryDy=0;exitX=0.5;exitY=0;exitDx=0;exitDy=0;" edge="1" parent="1" source="hVogDAWBeh3BI3Ig1OgH-39" target="hVogDAWBeh3BI3Ig1OgH-1">
          <mxGeometry width="50" height="50" relative="1" as="geometry">
            <mxPoint x="550" y="235" as="sourcePoint" />
            <mxPoint x="550" y="215" as="targetPoint" />
          </mxGeometry>
        </mxCell>
        <mxCell id="hVogDAWBeh3BI3Ig1OgH-48" value="1" style="endArrow=none;html=1;entryX=0.5;entryY=1;entryDx=0;entryDy=0;exitX=0.5;exitY=0;exitDx=0;exitDy=0;" edge="1" parent="1" source="hVogDAWBeh3BI3Ig1OgH-40" target="hVogDAWBeh3BI3Ig1OgH-7">
          <mxGeometry width="50" height="50" relative="1" as="geometry">
            <mxPoint x="290" y="292.5" as="sourcePoint" />
            <mxPoint x="290" y="275" as="targetPoint" />
          </mxGeometry>
        </mxCell>
        <mxCell id="hVogDAWBeh3BI3Ig1OgH-49" value="n" style="endArrow=none;html=1;entryX=0.5;entryY=1;entryDx=0;entryDy=0;exitX=0.5;exitY=0;exitDx=0;exitDy=0;" edge="1" parent="1" source="hVogDAWBeh3BI3Ig1OgH-8" target="hVogDAWBeh3BI3Ig1OgH-40">
          <mxGeometry width="50" height="50" relative="1" as="geometry">
            <mxPoint x="300" y="302.5" as="sourcePoint" />
            <mxPoint x="300" y="285" as="targetPoint" />
          </mxGeometry>
        </mxCell>
        <mxCell id="hVogDAWBeh3BI3Ig1OgH-51" value="合约地址" style="ellipse;whiteSpace=wrap;html=1;align=center;" vertex="1" parent="1">
          <mxGeometry x="670" y="290" width="100" height="30" as="geometry" />
        </mxCell>
        <mxCell id="hVogDAWBeh3BI3Ig1OgH-52" value="漏洞序号" style="ellipse;whiteSpace=wrap;html=1;align=center;" vertex="1" parent="1">
          <mxGeometry x="670" y="325" width="100" height="30" as="geometry" />
        </mxCell>
        <mxCell id="hVogDAWBeh3BI3Ig1OgH-53" value="代码行" style="ellipse;whiteSpace=wrap;html=1;align=center;" vertex="1" parent="1">
          <mxGeometry x="670" y="360" width="100" height="30" as="geometry" />
        </mxCell>
        <mxCell id="hVogDAWBeh3BI3Ig1OgH-54" value="漏洞类型" style="ellipse;whiteSpace=wrap;html=1;align=center;" vertex="1" parent="1">
          <mxGeometry x="670" y="395" width="100" height="30" as="geometry" />
        </mxCell>
        <mxCell id="hVogDAWBeh3BI3Ig1OgH-55" value="严重程度" style="ellipse;whiteSpace=wrap;html=1;align=center;" vertex="1" parent="1">
          <mxGeometry x="670" y="430" width="100" height="30" as="geometry" />
        </mxCell>
        <mxCell id="hVogDAWBeh3BI3Ig1OgH-56" value="修改建议" style="ellipse;whiteSpace=wrap;html=1;align=center;" vertex="1" parent="1">
          <mxGeometry x="670" y="465" width="100" height="25" as="geometry" />
        </mxCell>
        <mxCell id="hVogDAWBeh3BI3Ig1OgH-57" value="区块高度" style="ellipse;whiteSpace=wrap;html=1;align=center;" vertex="1" parent="1">
          <mxGeometry x="80" y="265" width="100" height="30" as="geometry" />
        </mxCell>
        <mxCell id="hVogDAWBeh3BI3Ig1OgH-58" value="区块信息" style="ellipse;whiteSpace=wrap;html=1;align=center;" vertex="1" parent="1">
          <mxGeometry x="80" y="310" width="100" height="30" as="geometry" />
        </mxCell>
        <mxCell id="hVogDAWBeh3BI3Ig1OgH-59" value="转义后文本" style="ellipse;whiteSpace=wrap;html=1;align=center;" vertex="1" parent="1">
          <mxGeometry x="90" y="500" width="100" height="30" as="geometry" />
        </mxCell>
        <mxCell id="hVogDAWBeh3BI3Ig1OgH-60" value="转义前文本" style="ellipse;whiteSpace=wrap;html=1;align=center;" vertex="1" parent="1">
          <mxGeometry x="90" y="460" width="100" height="30" as="geometry" />
        </mxCell>
        <mxCell id="hVogDAWBeh3BI3Ig1OgH-61" value="交易序号" style="ellipse;whiteSpace=wrap;html=1;align=center;" vertex="1" parent="1">
          <mxGeometry x="90" y="415" width="100" height="30" as="geometry" />
        </mxCell>
        <mxCell id="hVogDAWBeh3BI3Ig1OgH-62" value="区块高度" style="ellipse;whiteSpace=wrap;html=1;align=center;" vertex="1" parent="1">
          <mxGeometry x="100" y="380" width="100" height="30" as="geometry" />
        </mxCell>
        <mxCell id="hVogDAWBeh3BI3Ig1OgH-63" value="" style="endArrow=none;html=1;exitX=1;exitY=0.5;exitDx=0;exitDy=0;entryX=0;entryY=0.5;entryDx=0;entryDy=0;" edge="1" parent="1" source="hVogDAWBeh3BI3Ig1OgH-57" target="hVogDAWBeh3BI3Ig1OgH-7">
          <mxGeometry width="50" height="50" relative="1" as="geometry">
            <mxPoint x="400" y="384.9999999999998" as="sourcePoint" />
            <mxPoint x="450" y="379.9999999999998" as="targetPoint" />
          </mxGeometry>
        </mxCell>
        <mxCell id="hVogDAWBeh3BI3Ig1OgH-64" value="" style="endArrow=none;html=1;exitX=1;exitY=0.5;exitDx=0;exitDy=0;entryX=0;entryY=0.5;entryDx=0;entryDy=0;" edge="1" parent="1" source="hVogDAWBeh3BI3Ig1OgH-58" target="hVogDAWBeh3BI3Ig1OgH-7">
          <mxGeometry width="50" height="50" relative="1" as="geometry">
            <mxPoint x="200" y="199.99999999999977" as="sourcePoint" />
            <mxPoint x="250" y="194.99999999999977" as="targetPoint" />
          </mxGeometry>
        </mxCell>
        <mxCell id="hVogDAWBeh3BI3Ig1OgH-65" value="" style="endArrow=none;html=1;exitX=1;exitY=0.5;exitDx=0;exitDy=0;entryX=0;entryY=0.5;entryDx=0;entryDy=0;" edge="1" parent="1" source="hVogDAWBeh3BI3Ig1OgH-62" target="hVogDAWBeh3BI3Ig1OgH-8">
          <mxGeometry width="50" height="50" relative="1" as="geometry">
            <mxPoint x="210" y="209.99999999999977" as="sourcePoint" />
            <mxPoint x="260" y="204.99999999999977" as="targetPoint" />
          </mxGeometry>
        </mxCell>
        <mxCell id="hVogDAWBeh3BI3Ig1OgH-66" value="" style="endArrow=none;html=1;exitX=1;exitY=0.5;exitDx=0;exitDy=0;entryX=0;entryY=0.5;entryDx=0;entryDy=0;" edge="1" parent="1" source="hVogDAWBeh3BI3Ig1OgH-61" target="hVogDAWBeh3BI3Ig1OgH-8">
          <mxGeometry width="50" height="50" relative="1" as="geometry">
            <mxPoint x="220" y="219.99999999999977" as="sourcePoint" />
            <mxPoint x="270" y="214.99999999999977" as="targetPoint" />
          </mxGeometry>
        </mxCell>
        <mxCell id="hVogDAWBeh3BI3Ig1OgH-67" value="" style="endArrow=none;html=1;exitX=1;exitY=0.5;exitDx=0;exitDy=0;" edge="1" parent="1" source="hVogDAWBeh3BI3Ig1OgH-60">
          <mxGeometry width="50" height="50" relative="1" as="geometry">
            <mxPoint x="230" y="229.99999999999977" as="sourcePoint" />
            <mxPoint x="230" y="430" as="targetPoint" />
          </mxGeometry>
        </mxCell>
        <mxCell id="hVogDAWBeh3BI3Ig1OgH-68" value="" style="endArrow=none;html=1;exitX=1;exitY=0.5;exitDx=0;exitDy=0;entryX=0;entryY=0.5;entryDx=0;entryDy=0;" edge="1" parent="1" source="hVogDAWBeh3BI3Ig1OgH-59" target="hVogDAWBeh3BI3Ig1OgH-8">
          <mxGeometry width="50" height="50" relative="1" as="geometry">
            <mxPoint x="240" y="239.99999999999977" as="sourcePoint" />
            <mxPoint x="290" y="234.99999999999977" as="targetPoint" />
          </mxGeometry>
        </mxCell>
        <mxCell id="hVogDAWBeh3BI3Ig1OgH-69" value="" style="endArrow=none;html=1;exitX=1;exitY=0.5;exitDx=0;exitDy=0;entryX=0;entryY=0.5;entryDx=0;entryDy=0;" edge="1" parent="1" source="hVogDAWBeh3BI3Ig1OgH-5" target="hVogDAWBeh3BI3Ig1OgH-51">
          <mxGeometry width="50" height="50" relative="1" as="geometry">
            <mxPoint x="190" y="334.9999999999998" as="sourcePoint" />
            <mxPoint x="240" y="312.4999999999998" as="targetPoint" />
          </mxGeometry>
        </mxCell>
        <mxCell id="hVogDAWBeh3BI3Ig1OgH-74" value="" style="endArrow=none;html=1;exitX=1;exitY=0.5;exitDx=0;exitDy=0;entryX=0;entryY=0.5;entryDx=0;entryDy=0;" edge="1" parent="1" source="hVogDAWBeh3BI3Ig1OgH-5" target="hVogDAWBeh3BI3Ig1OgH-56">
          <mxGeometry width="50" height="50" relative="1" as="geometry">
            <mxPoint x="240" y="384.9999999999998" as="sourcePoint" />
            <mxPoint x="290" y="362.4999999999998" as="targetPoint" />
          </mxGeometry>
        </mxCell>
        <mxCell id="hVogDAWBeh3BI3Ig1OgH-75" value="" style="endArrow=none;html=1;exitX=1;exitY=0.5;exitDx=0;exitDy=0;entryX=0;entryY=0.5;entryDx=0;entryDy=0;" edge="1" parent="1" source="hVogDAWBeh3BI3Ig1OgH-5" target="hVogDAWBeh3BI3Ig1OgH-52">
          <mxGeometry width="50" height="50" relative="1" as="geometry">
            <mxPoint x="590" y="324.9999999999998" as="sourcePoint" />
            <mxPoint x="680" y="314.9999999999998" as="targetPoint" />
          </mxGeometry>
        </mxCell>
        <mxCell id="hVogDAWBeh3BI3Ig1OgH-76" value="" style="endArrow=none;html=1;exitX=1;exitY=0.5;exitDx=0;exitDy=0;entryX=0;entryY=0.5;entryDx=0;entryDy=0;" edge="1" parent="1" source="hVogDAWBeh3BI3Ig1OgH-5" target="hVogDAWBeh3BI3Ig1OgH-53">
          <mxGeometry width="50" height="50" relative="1" as="geometry">
            <mxPoint x="600" y="334.9999999999998" as="sourcePoint" />
            <mxPoint x="690" y="324.9999999999998" as="targetPoint" />
          </mxGeometry>
        </mxCell>
        <mxCell id="hVogDAWBeh3BI3Ig1OgH-77" value="" style="endArrow=none;html=1;exitX=1;exitY=0.5;exitDx=0;exitDy=0;entryX=0;entryY=0.5;entryDx=0;entryDy=0;" edge="1" parent="1" source="hVogDAWBeh3BI3Ig1OgH-5" target="hVogDAWBeh3BI3Ig1OgH-54">
          <mxGeometry width="50" height="50" relative="1" as="geometry">
            <mxPoint x="610" y="344.9999999999998" as="sourcePoint" />
            <mxPoint x="700" y="334.9999999999998" as="targetPoint" />
          </mxGeometry>
        </mxCell>
        <mxCell id="hVogDAWBeh3BI3Ig1OgH-78" value="" style="endArrow=none;html=1;exitX=1;exitY=0.5;exitDx=0;exitDy=0;entryX=0;entryY=0.5;entryDx=0;entryDy=0;" edge="1" parent="1" source="hVogDAWBeh3BI3Ig1OgH-5" target="hVogDAWBeh3BI3Ig1OgH-55">
          <mxGeometry width="50" height="50" relative="1" as="geometry">
            <mxPoint x="620" y="354.9999999999998" as="sourcePoint" />
            <mxPoint x="710" y="344.9999999999998" as="targetPoint" />
          </mxGeometry>
        </mxCell>
      </root>
    </mxGraphModel>
  </diagram>
</mxfile>
